<svg width="17" height="16" viewBox="0 0 17 16" fill="none" xmlns="http://www.w3.org/2000/svg">
<path fill-rule="evenodd" clip-rule="evenodd" d="M16.9742 3.72302C16.9742 3.94702 16.8902 4.12202 16.7512 4.23302L14.7822 6.25002C14.6522 6.38302 14.4812 6.45002 14.3112 6.45002C14.1402 6.45002 13.9702 6.38302 13.8402 6.25002C13.5802 5.98402 13.5802 5.55202 13.8402 5.28602L14.7442 4.36002H13.0472C12.6632 4.36002 12.5232 4.59402 12.3012 4.91302L6.75116 12.87C6.28016 13.547 5.51316 13.951 4.70016 13.951H1.65916C1.29116 13.951 0.993164 13.646 0.993164 13.269C0.993164 12.893 1.29116 12.587 1.65916 12.587H4.70016C5.08316 12.587 5.44516 12.397 5.66716 12.078L8.18916 8.46202C8.16516 8.43702 8.13416 8.42402 8.11316 8.39502L5.66816 4.87702C5.45516 4.58602 5.38816 4.36002 5.01616 4.36002H1.66916C1.30216 4.36002 0.993164 4.09902 0.993164 3.72202C0.993164 3.34502 1.29116 3.04002 1.65916 3.04002H4.72716C5.51716 3.04002 6.27116 3.42602 6.74416 4.07402L8.99316 7.30902L11.2172 4.12102C11.6882 3.44402 12.4552 3.04002 13.2682 3.04002H14.7012L13.8412 2.15802C13.5812 1.89202 13.5812 1.45902 13.8412 1.19402C14.1012 0.927024 14.5232 0.927024 14.7832 1.19402L16.7792 3.23902C16.8402 3.30202 16.8892 3.37802 16.9232 3.46102C16.9572 3.54502 16.9742 3.63402 16.9742 3.72302ZM10.9422 10.28L12.2882 12.109C12.5102 12.408 12.8632 12.587 13.2332 12.587H14.7252L13.8632 11.705C13.6032 11.439 13.6032 11.008 13.8632 10.741C14.1242 10.475 14.5452 10.475 14.8052 10.741L16.8032 12.787C17.0632 13.054 17.0632 13.485 16.8032 13.751L14.8062 15.797C14.6762 15.93 14.5062 15.997 14.3362 15.997C14.1652 15.997 13.9952 15.93 13.8652 15.797C13.6052 15.532 13.6052 15.099 13.8652 14.833L14.7252 13.951H13.2332C12.4502 13.951 11.6992 13.571 11.2262 12.932L9.87916 11.101C9.65716 10.8 9.71616 10.373 10.0102 10.146C10.3042 9.91902 10.7212 9.98102 10.9422 10.28Z" fill="#9FA3A7"/>
</svg>
